<svg xmlns="http://www.w3.org/2000/svg" xmlns:xlink="http://www.w3.org/1999/xlink" width="400" zoomAndPan="magnify" viewBox="0 0 300 74.999997" height="100" preserveAspectRatio="xMidYMid meet" version="1.0"><defs><filter x="0%" y="0%" width="100%" height="100%" id="3b9ca7c4a7"><feColorMatrix values="0 0 0 0 1 0 0 0 0 1 0 0 0 0 1 0 0 0 1 0" color-interpolation-filters="sRGB"/></filter><g/><mask id="4cb76d176a"><g filter="url(#3b9ca7c4a7)"><rect x="-30" width="360" fill="#000000" y="-7.5" height="89.999996" fill-opacity="0.74"/></g></mask><clipPath id="9cad3f7865"><path d="M 11 11 L 274 11 L 274 61 L 11 61 Z M 11 11 " clip-rule="nonzero"/></clipPath><clipPath id="6941720c62"><path d="M 0.496094 41.609375 L 140.039062 -106.171875 L 287.816406 33.371094 L 148.277344 181.148438 Z M 0.496094 41.609375 " clip-rule="nonzero"/></clipPath><clipPath id="16b39ec6f8"><path d="M 0.496094 41.609375 L 140.039062 -106.171875 L 287.816406 33.371094 L 148.277344 181.148438 Z M 0.496094 41.609375 " clip-rule="nonzero"/></clipPath><clipPath id="e826c4b3ab"><rect x="0" width="288" y="0" height="75"/></clipPath><clipPath id="eb072a5b50"><path d="M 256 29 L 258 29 L 258 35 L 256 35 Z M 256 29 " clip-rule="nonzero"/></clipPath><clipPath id="d40e789280"><path d="M 250.609375 30.125 L 271.566406 28.792969 L 272.609375 45.261719 L 251.652344 46.589844 Z M 250.609375 30.125 " clip-rule="nonzero"/></clipPath><clipPath id="62e48169bc"><path d="M 250.609375 30.125 L 271.566406 28.792969 L 272.609375 45.261719 L 251.652344 46.589844 Z M 250.609375 30.125 " clip-rule="nonzero"/></clipPath><clipPath id="5403f353ee"><path d="M 263 29 L 266 29 L 266 34 L 263 34 Z M 263 29 " clip-rule="nonzero"/></clipPath><clipPath id="f61adde924"><path d="M 250.609375 30.125 L 271.566406 28.792969 L 272.609375 45.261719 L 251.652344 46.589844 Z M 250.609375 30.125 " clip-rule="nonzero"/></clipPath><clipPath id="caf28aedfc"><path d="M 250.609375 30.125 L 271.566406 28.792969 L 272.609375 45.261719 L 251.652344 46.589844 Z M 250.609375 30.125 " clip-rule="nonzero"/></clipPath><clipPath id="30ea04b5fe"><path d="M 251 33 L 272 33 L 272 47 L 251 47 Z M 251 33 " clip-rule="nonzero"/></clipPath><clipPath id="7dc5765ee8"><path d="M 250.609375 30.125 L 271.566406 28.792969 L 272.609375 45.261719 L 251.652344 46.589844 Z M 250.609375 30.125 " clip-rule="nonzero"/></clipPath><clipPath id="1610555043"><path d="M 250.609375 30.125 L 271.566406 28.792969 L 272.609375 45.261719 L 251.652344 46.589844 Z M 250.609375 30.125 " clip-rule="nonzero"/></clipPath><clipPath id="0eb6a2568f"><rect x="0" width="209" y="0" height="53"/></clipPath></defs><rect x="-30" width="360" fill="#ffffff" y="-7.5" height="89.999996" fill-opacity="1"/><rect x="-30" width="360" fill="#ffffff" y="-7.5" height="89.999996" fill-opacity="1"/><g mask="url(#4cb76d176a)"><g transform="matrix(1, 0, 0, 1, 5, -0.000000000000001893)"><g clip-path="url(#e826c4b3ab)"><g clip-path="url(#9cad3f7865)"><g clip-path="url(#6941720c62)"><g clip-path="url(#16b39ec6f8)"><path fill="#ffd23f" d="M 211.582031 13.3125 C 204.882812 13.503906 173.992188 23.789062 170.035156 31 L 21.457031 35.257812 C 21.957031 32.164062 22.929688 29.445312 24.289062 27.511719 C 25.507812 25.785156 25.089844 23.394531 23.359375 22.175781 C 21.632812 20.957031 19.242188 21.375 18.023438 23.105469 C 15.515625 26.671875 13.945312 31.648438 13.53125 37.152344 C 12.507812 38.222656 11.898438 39.683594 11.945312 41.28125 C 11.988281 42.875 12.683594 44.300781 13.765625 45.3125 C 14.492188 50.78125 16.34375 55.660156 19.054688 59.078125 C 20.371094 60.734375 22.78125 61.011719 24.4375 59.699219 C 24.585938 59.582031 24.71875 59.457031 24.84375 59.324219 C 26.132812 57.960938 26.253906 55.828125 25.058594 54.316406 C 23.589844 52.46875 22.460938 49.808594 21.785156 46.746094 L 170.363281 42.488281 C 174.730469 49.457031 206.15625 57.957031 212.855469 57.765625 L 260.511719 56.398438 C 267.691406 56.195312 273.34375 50.207031 273.140625 43.027344 L 272.609375 24.574219 C 272.402344 17.390625 266.417969 11.738281 259.238281 11.945312 Z M 211.582031 13.3125 " fill-opacity="1" fill-rule="nonzero"/></g></g></g></g></g></g><g clip-path="url(#eb072a5b50)"><g clip-path="url(#d40e789280)"><g clip-path="url(#62e48169bc)"><path fill="#0b2d4d" d="M 256.03125 30.535156 C 255.96875 31.070312 256.070312 31.660156 256.109375 32.207031 C 256.152344 32.78125 256.210938 33.339844 256.296875 33.902344 C 256.378906 34.445312 257.3125 34.464844 257.390625 33.910156 C 257.488281 33.285156 257.515625 32.707031 257.460938 32.085938 C 257.402344 31.476562 257.339844 30.820312 257.070312 30.269531 C 256.960938 30.054688 256.671875 29.953125 256.453125 30.007812 C 256.195312 30.074219 256.066406 30.289062 256.03125 30.535156 Z M 256.03125 30.535156 " fill-opacity="1" fill-rule="nonzero"/></g></g></g><g clip-path="url(#5403f353ee)"><g clip-path="url(#f61adde924)"><g clip-path="url(#caf28aedfc)"><path fill="#0b2d4d" d="M 263.722656 29.859375 C 263.535156 30.300781 263.660156 30.925781 263.710938 31.390625 C 263.769531 31.933594 263.863281 32.433594 264.039062 32.949219 C 264.273438 33.652344 265.175781 33.488281 265.273438 32.800781 C 265.359375 32.226562 265.332031 31.707031 265.230469 31.136719 C 265.144531 30.625 265.054688 30.011719 264.695312 29.605469 C 264.371094 29.25 263.875 29.488281 263.722656 29.859375 Z M 263.722656 29.859375 " fill-opacity="1" fill-rule="nonzero"/></g></g></g><g clip-path="url(#30ea04b5fe)"><g clip-path="url(#7dc5765ee8)"><g clip-path="url(#1610555043)"><path fill="#0b2d4d" d="M 251.25 39.675781 C 251.296875 40.75 251.898438 41.71875 252.546875 42.539062 C 253.1875 43.34375 253.988281 44.035156 254.867188 44.570312 C 256.546875 45.585938 258.554688 46.097656 260.515625 46.058594 C 262.503906 46.019531 264.511719 45.480469 266.195312 44.40625 C 267.871094 43.339844 269.246094 41.835938 270.210938 40.097656 C 270.738281 39.140625 271.152344 38.101562 271.417969 37.039062 C 271.558594 36.492188 271.667969 35.921875 271.722656 35.355469 C 271.773438 34.800781 271.847656 34.160156 271.636719 33.632812 C 271.433594 33.132812 270.804688 33.101562 270.597656 33.621094 C 270.429688 34.039062 270.4375 34.484375 270.375 34.929688 C 270.308594 35.367188 270.238281 35.808594 270.136719 36.238281 C 269.945312 37.070312 269.671875 37.882812 269.300781 38.648438 C 268.550781 40.195312 267.476562 41.609375 266.089844 42.648438 C 263.347656 44.699219 259.496094 45.199219 256.335938 43.820312 C 255.414062 43.417969 254.546875 42.855469 253.820312 42.167969 C 252.992188 41.386719 252.492188 40.453125 251.898438 39.5 C 251.726562 39.234375 251.234375 39.316406 251.25 39.675781 Z M 251.25 39.675781 " fill-opacity="1" fill-rule="nonzero"/></g></g></g><g transform="matrix(1, 0, 0, 1, 36, 11)"><g clip-path="url(#0eb6a2568f)"><g fill="#0b2d4d" fill-opacity="1"><g transform="translate(0.752809, 35.666583)"><g><path d="M 9.078125 2.4375 C 8.566406 2.84375 8.140625 2.957031 7.796875 2.78125 C 7.460938 2.613281 7.1875 2.296875 6.96875 1.828125 C 6.75 1.359375 6.582031 0.851562 6.46875 0.3125 C 6.351562 -0.21875 6.265625 -0.65625 6.203125 -1 C 5.921875 -2.632812 5.707031 -4.289062 5.5625 -5.96875 C 5.414062 -7.644531 5.304688 -9.316406 5.234375 -10.984375 C 5.191406 -11.742188 5.195312 -12.539062 5.25 -13.375 C 5.3125 -14.207031 5.320312 -14.945312 5.28125 -15.59375 C 5.25 -16.238281 5.085938 -16.664062 4.796875 -16.875 L 3.328125 -17.109375 C 2.984375 -17.160156 2.632812 -17.21875 2.28125 -17.28125 C 1.925781 -17.351562 1.585938 -17.457031 1.265625 -17.59375 C 0.691406 -17.863281 0.296875 -18.253906 0.078125 -18.765625 C -0.128906 -19.285156 0.00390625 -19.832031 0.484375 -20.40625 C 0.847656 -20.832031 1.335938 -21.109375 1.953125 -21.234375 C 2.566406 -21.367188 3.132812 -21.457031 3.65625 -21.5 L 5.609375 -22.109375 C 5.773438 -22.359375 5.863281 -22.707031 5.875 -23.15625 C 5.882812 -23.601562 5.910156 -23.972656 5.953125 -24.265625 C 6.066406 -24.890625 6.226562 -25.550781 6.4375 -26.25 C 6.644531 -26.957031 7.007812 -27.53125 7.53125 -27.96875 C 7.988281 -28.425781 8.378906 -28.578125 8.703125 -28.421875 C 9.035156 -28.273438 9.316406 -27.957031 9.546875 -27.46875 C 9.773438 -26.976562 9.972656 -26.421875 10.140625 -25.796875 C 10.316406 -25.171875 10.46875 -24.578125 10.59375 -24.015625 C 10.71875 -23.453125 10.828125 -23.046875 10.921875 -22.796875 C 11.035156 -22.523438 11.109375 -22.335938 11.140625 -22.234375 C 11.171875 -22.128906 11.242188 -22.070312 11.359375 -22.0625 C 11.472656 -22.050781 11.710938 -22.035156 12.078125 -22.015625 C 12.765625 -21.960938 13.28125 -21.921875 13.625 -21.890625 C 13.96875 -21.859375 14.253906 -21.8125 14.484375 -21.75 C 14.710938 -21.695312 15.007812 -21.601562 15.375 -21.46875 C 15.832031 -21.300781 16.3125 -21.054688 16.8125 -20.734375 C 17.3125 -20.421875 17.628906 -20.003906 17.765625 -19.484375 C 17.921875 -18.953125 17.820312 -18.515625 17.46875 -18.171875 C 17.125 -17.835938 16.6875 -17.582031 16.15625 -17.40625 C 15.632812 -17.238281 15.179688 -17.109375 14.796875 -17.015625 L 11.984375 -16.671875 C 11.710938 -16.597656 11.546875 -16.570312 11.484375 -16.59375 C 11.429688 -16.625 11.410156 -16.625 11.421875 -16.59375 C 11.429688 -16.570312 11.378906 -16.453125 11.265625 -16.234375 L 11.265625 -15.03125 C 11.265625 -13.019531 11.222656 -10.992188 11.140625 -8.953125 C 11.066406 -6.910156 10.914062 -4.875 10.6875 -2.84375 C 10.613281 -2.34375 10.535156 -1.742188 10.453125 -1.046875 C 10.378906 -0.347656 10.238281 0.316406 10.03125 0.953125 C 9.820312 1.597656 9.503906 2.09375 9.078125 2.4375 Z M 9.078125 2.4375 "/></g></g></g><g fill="#0b2d4d" fill-opacity="1"><g transform="translate(18.585727, 35.666583)"><g><path d="M 12.15625 4.109375 C 11.832031 4.359375 11.523438 4.441406 11.234375 4.359375 C 10.953125 4.285156 10.695312 4.113281 10.46875 3.84375 C 10.25 3.582031 10.054688 3.316406 9.890625 3.046875 C 9.660156 2.566406 9.507812 2.050781 9.4375 1.5 C 9.375 0.957031 9.316406 0.398438 9.265625 -0.171875 C 9.222656 -0.742188 9.128906 -1.285156 8.984375 -1.796875 C 8.835938 -2.304688 8.554688 -2.769531 8.140625 -3.1875 C 7.734375 -2.820312 7.257812 -2.414062 6.71875 -1.96875 C 6.1875 -1.519531 5.625 -1.117188 5.03125 -0.765625 C 4.4375 -0.410156 3.863281 -0.1875 3.3125 -0.09375 C 2.769531 -0.0078125 2.28125 -0.140625 1.84375 -0.484375 C 1.414062 -0.828125 1.097656 -1.488281 0.890625 -2.46875 C 0.585938 -3.789062 0.453125 -5.1875 0.484375 -6.65625 C 0.523438 -8.125 0.660156 -9.597656 0.890625 -11.078125 C 1.117188 -12.566406 1.347656 -13.960938 1.578125 -15.265625 C 1.734375 -16.179688 1.914062 -17.179688 2.125 -18.265625 C 2.332031 -19.347656 2.6875 -20.273438 3.1875 -21.046875 C 3.570312 -21.640625 4.039062 -21.984375 4.59375 -22.078125 C 5.15625 -22.171875 5.675781 -22.0625 6.15625 -21.75 C 6.632812 -21.445312 6.945312 -20.972656 7.09375 -20.328125 C 7.25 -19.554688 7.269531 -18.75 7.15625 -17.90625 C 7.039062 -17.0625 6.894531 -16.21875 6.71875 -15.375 C 6.550781 -14.53125 6.445312 -13.707031 6.40625 -12.90625 C 6.332031 -11.71875 6.265625 -10.53125 6.203125 -9.34375 C 6.148438 -8.15625 6.035156 -6.976562 5.859375 -5.8125 C 6.222656 -6.1875 6.640625 -6.566406 7.109375 -6.953125 C 7.578125 -7.335938 8.070312 -7.644531 8.59375 -7.875 C 9.113281 -8.101562 9.625 -8.164062 10.125 -8.0625 C 10.632812 -7.957031 11.09375 -7.597656 11.5 -6.984375 C 11.882812 -6.390625 12.144531 -5.65625 12.28125 -4.78125 C 12.425781 -3.914062 12.507812 -3.046875 12.53125 -2.171875 C 12.550781 -1.296875 12.570312 -0.515625 12.59375 0.171875 C 12.59375 0.492188 12.613281 0.914062 12.65625 1.4375 C 12.707031 1.957031 12.707031 2.46875 12.65625 2.96875 C 12.613281 3.476562 12.445312 3.859375 12.15625 4.109375 Z M 12.15625 4.109375 "/></g></g></g><g fill="#0b2d4d" fill-opacity="1"><g transform="translate(31.797837, 35.666583)"><g><path d="M 4.59375 -1.546875 C 3.519531 -1.722656 2.664062 -2.140625 2.03125 -2.796875 C 1.40625 -3.460938 0.976562 -4.265625 0.75 -5.203125 C 0.519531 -6.140625 0.457031 -7.117188 0.5625 -8.140625 C 0.664062 -9.171875 0.910156 -10.148438 1.296875 -11.078125 C 1.691406 -12.003906 2.179688 -12.785156 2.765625 -13.421875 C 3.523438 -14.222656 4.476562 -14.816406 5.625 -15.203125 C 6.78125 -15.585938 7.90625 -15.617188 9 -15.296875 C 9.570312 -15.140625 10.097656 -14.847656 10.578125 -14.421875 C 11.054688 -14.003906 11.429688 -13.519531 11.703125 -12.96875 C 11.984375 -12.425781 12.097656 -11.863281 12.046875 -11.28125 C 12.003906 -10.695312 11.753906 -10.144531 11.296875 -9.625 C 10.859375 -9.144531 10.320312 -8.789062 9.6875 -8.5625 C 9.050781 -8.332031 8.425781 -8.160156 7.8125 -8.046875 C 7.394531 -7.972656 6.96875 -7.925781 6.53125 -7.90625 C 6.101562 -7.882812 5.734375 -7.773438 5.421875 -7.578125 C 5.117188 -7.390625 4.941406 -7 4.890625 -6.40625 C 4.847656 -5.789062 4.945312 -5.410156 5.1875 -5.265625 C 5.425781 -5.128906 5.734375 -5.144531 6.109375 -5.3125 C 6.484375 -5.488281 6.875 -5.722656 7.28125 -6.015625 C 7.695312 -6.316406 8.078125 -6.601562 8.421875 -6.875 C 8.765625 -7.15625 9.003906 -7.328125 9.140625 -7.390625 C 9.867188 -7.710938 10.390625 -7.734375 10.703125 -7.453125 C 11.023438 -7.179688 11.195312 -6.765625 11.21875 -6.203125 C 11.25 -5.648438 11.164062 -5.085938 10.96875 -4.515625 C 10.78125 -3.941406 10.535156 -3.507812 10.234375 -3.21875 C 9.523438 -2.507812 8.648438 -2.007812 7.609375 -1.71875 C 6.578125 -1.4375 5.570312 -1.378906 4.59375 -1.546875 Z M 6.84375 -10.203125 C 7.070312 -10.128906 7.367188 -10.132812 7.734375 -10.21875 C 8.097656 -10.300781 8.40625 -10.4375 8.65625 -10.625 C 8.90625 -10.820312 8.972656 -11.035156 8.859375 -11.265625 C 8.429688 -11.328125 8.035156 -11.265625 7.671875 -11.078125 C 7.304688 -10.898438 7.03125 -10.609375 6.84375 -10.203125 Z M 6.84375 -10.203125 "/></g></g></g><g fill="#0b2d4d" fill-opacity="1"><g transform="translate(44.359611, 35.666583)"><g/></g></g><g fill="#0b2d4d" fill-opacity="1"><g transform="translate(52.916677, 35.666583)"><g><path d="M 4.859375 -0.65625 C 4.285156 -0.101562 3.710938 0.109375 3.140625 -0.015625 C 2.578125 -0.140625 2.085938 -0.453125 1.671875 -0.953125 C 1.265625 -1.460938 1.003906 -2.015625 0.890625 -2.609375 C 0.660156 -3.742188 0.570312 -4.773438 0.625 -5.703125 C 0.6875 -6.628906 0.707031 -7.671875 0.6875 -8.828125 C 0.664062 -10.378906 0.628906 -11.925781 0.578125 -13.46875 C 0.535156 -15.007812 0.515625 -16.546875 0.515625 -18.078125 C 0.515625 -18.691406 0.535156 -19.3125 0.578125 -19.9375 C 0.628906 -20.570312 0.789062 -21.140625 1.0625 -21.640625 C 1.332031 -22.140625 1.800781 -22.515625 2.46875 -22.765625 C 3.375 -23.109375 4.113281 -23.1875 4.6875 -23 C 5.257812 -22.820312 5.6875 -22.46875 5.96875 -21.9375 C 6.257812 -21.414062 6.445312 -20.789062 6.53125 -20.0625 C 6.625 -19.332031 6.660156 -18.570312 6.640625 -17.78125 C 6.617188 -17 6.566406 -16.257812 6.484375 -15.5625 C 6.410156 -14.863281 6.347656 -14.285156 6.296875 -13.828125 C 7.046875 -13.878906 7.789062 -13.882812 8.53125 -13.84375 C 9.28125 -13.8125 10.019531 -13.796875 10.75 -13.796875 C 10.65625 -14.566406 10.539062 -15.378906 10.40625 -16.234375 C 10.269531 -17.097656 10.191406 -17.957031 10.171875 -18.8125 C 10.148438 -19.664062 10.238281 -20.484375 10.4375 -21.265625 C 10.625 -21.921875 10.976562 -22.519531 11.5 -23.0625 C 12.03125 -23.613281 12.640625 -23.957031 13.328125 -24.09375 C 14.023438 -24.238281 14.695312 -24.035156 15.34375 -23.484375 C 15.726562 -23.160156 16 -22.566406 16.15625 -21.703125 C 16.3125 -20.835938 16.394531 -19.8125 16.40625 -18.625 C 16.425781 -17.4375 16.398438 -16.1875 16.328125 -14.875 C 16.265625 -13.5625 16.164062 -12.285156 16.03125 -11.046875 C 15.90625 -9.816406 15.789062 -8.734375 15.6875 -7.796875 C 15.59375 -6.867188 15.519531 -6.1875 15.46875 -5.75 C 15.445312 -5.425781 15.390625 -4.988281 15.296875 -4.4375 C 15.210938 -3.894531 15.078125 -3.347656 14.890625 -2.796875 C 14.710938 -2.253906 14.476562 -1.796875 14.1875 -1.421875 C 13.90625 -1.046875 13.566406 -0.863281 13.171875 -0.875 C 12.785156 -0.882812 12.34375 -1.175781 11.84375 -1.75 C 11.300781 -2.382812 10.984375 -3.148438 10.890625 -4.046875 C 10.796875 -4.953125 10.800781 -5.875 10.90625 -6.8125 C 11.007812 -7.75 11.070312 -8.582031 11.09375 -9.3125 C 10.726562 -9.269531 10.25 -9.234375 9.65625 -9.203125 C 9.0625 -9.179688 8.476562 -9.132812 7.90625 -9.0625 C 7.332031 -9 6.890625 -8.878906 6.578125 -8.703125 C 6.160156 -8.472656 5.960938 -8.128906 5.984375 -7.671875 C 6.015625 -7.210938 6.015625 -6.6875 5.984375 -6.09375 C 5.960938 -5.539062 5.953125 -4.921875 5.953125 -4.234375 C 5.953125 -3.554688 5.878906 -2.894531 5.734375 -2.25 C 5.585938 -1.613281 5.296875 -1.082031 4.859375 -0.65625 Z M 4.859375 -0.65625 "/></g></g></g><g fill="#0b2d4d" fill-opacity="1"><g transform="translate(70.03081, 35.666583)"><g><path d="M 10.921875 -0.03125 C 10.535156 -0.125 10.238281 -0.347656 10.03125 -0.703125 C 9.820312 -1.054688 9.675781 -1.46875 9.59375 -1.9375 C 9.519531 -2.40625 9.472656 -2.859375 9.453125 -3.296875 C 9.429688 -3.742188 9.421875 -4.101562 9.421875 -4.375 C 8.941406 -3.71875 8.328125 -3.15625 7.578125 -2.6875 C 6.835938 -2.21875 6.0625 -1.921875 5.25 -1.796875 C 4.445312 -1.671875 3.691406 -1.765625 2.984375 -2.078125 C 2.273438 -2.398438 1.691406 -3.007812 1.234375 -3.90625 C 0.796875 -4.8125 0.5625 -5.789062 0.53125 -6.84375 C 0.5 -7.894531 0.628906 -8.9375 0.921875 -9.96875 C 1.222656 -11.007812 1.625 -11.929688 2.125 -12.734375 C 2.601562 -13.460938 3.179688 -14.113281 3.859375 -14.6875 C 4.546875 -15.257812 5.289062 -15.664062 6.09375 -15.90625 C 6.894531 -16.144531 7.671875 -16.144531 8.421875 -15.90625 C 9.171875 -15.664062 9.851562 -15.109375 10.46875 -14.234375 C 10.84375 -13.734375 11.148438 -13.289062 11.390625 -12.90625 C 11.628906 -12.519531 11.8125 -12.109375 11.9375 -11.671875 C 12.0625 -11.242188 12.132812 -10.695312 12.15625 -10.03125 L 12.359375 -3.59375 C 12.359375 -3.34375 12.367188 -3 12.390625 -2.5625 C 12.410156 -2.132812 12.390625 -1.707031 12.328125 -1.28125 C 12.273438 -0.863281 12.140625 -0.523438 11.921875 -0.265625 C 11.710938 -0.015625 11.378906 0.0625 10.921875 -0.03125 Z M 6.578125 -7.765625 C 6.847656 -7.765625 7.128906 -7.921875 7.421875 -8.234375 C 7.722656 -8.546875 7.992188 -8.890625 8.234375 -9.265625 C 8.472656 -9.640625 8.628906 -9.929688 8.703125 -10.140625 C 8.921875 -10.640625 8.945312 -11.082031 8.78125 -11.46875 C 8.613281 -11.851562 8.253906 -11.929688 7.703125 -11.703125 C 7.335938 -11.566406 6.984375 -11.25 6.640625 -10.75 C 6.296875 -10.25 6.054688 -9.816406 5.921875 -9.453125 C 5.804688 -9.085938 5.757812 -8.722656 5.78125 -8.359375 C 5.800781 -7.992188 6.066406 -7.796875 6.578125 -7.765625 Z M 6.578125 -7.765625 "/></g></g></g><g fill="#0b2d4d" fill-opacity="1"><g transform="translate(82.969094, 35.666583)"><g><path d="M 1.640625 8.625 C 1.390625 8.03125 1.238281 7.390625 1.1875 6.703125 C 1.144531 6.023438 1.082031 5.378906 1 4.765625 C 0.90625 3.828125 0.816406 2.882812 0.734375 1.9375 C 0.648438 0.988281 0.597656 0.0351562 0.578125 -0.921875 C 0.515625 -2.679688 0.507812 -4.472656 0.5625 -6.296875 C 0.625 -8.117188 0.800781 -9.910156 1.09375 -11.671875 C 1.164062 -12.054688 1.265625 -12.515625 1.390625 -13.046875 C 1.515625 -13.585938 1.695312 -14.097656 1.9375 -14.578125 C 2.175781 -15.054688 2.488281 -15.378906 2.875 -15.546875 C 3.257812 -15.722656 3.628906 -15.742188 3.984375 -15.609375 C 4.335938 -15.472656 4.648438 -15.253906 4.921875 -14.953125 C 5.203125 -14.660156 5.390625 -14.34375 5.484375 -14 C 6.578125 -14.382812 7.679688 -14.53125 8.796875 -14.4375 C 9.910156 -14.351562 10.910156 -14.035156 11.796875 -13.484375 C 12.691406 -12.941406 13.320312 -12.195312 13.6875 -11.25 C 14.050781 -10.300781 14.03125 -9.164062 13.625 -7.84375 C 13.125 -6.3125 12.257812 -4.988281 11.03125 -3.875 C 9.8125 -2.769531 8.460938 -1.945312 6.984375 -1.40625 C 6.617188 -1.269531 6.359375 -1.179688 6.203125 -1.140625 C 6.054688 -1.109375 5.960938 -1.039062 5.921875 -0.9375 C 5.878906 -0.832031 5.8125 -0.585938 5.71875 -0.203125 C 5.625 0.273438 5.59375 0.78125 5.625 1.3125 C 5.664062 1.851562 5.675781 2.363281 5.65625 2.84375 C 5.625 3.644531 5.59375 4.445312 5.5625 5.25 C 5.53125 6.0625 5.421875 6.867188 5.234375 7.671875 C 5.117188 8.191406 4.925781 8.65625 4.65625 9.0625 C 4.382812 9.476562 4.066406 9.769531 3.703125 9.9375 C 3.335938 10.113281 2.96875 10.109375 2.59375 9.921875 C 2.226562 9.742188 1.910156 9.3125 1.640625 8.625 Z M 5.859375 -6.4375 C 5.992188 -6.570312 6.222656 -6.8125 6.546875 -7.15625 C 6.878906 -7.5 7.21875 -7.882812 7.5625 -8.3125 C 7.90625 -8.75 8.171875 -9.171875 8.359375 -9.578125 C 8.554688 -9.992188 8.597656 -10.335938 8.484375 -10.609375 C 8.398438 -10.890625 8.222656 -11.039062 7.953125 -11.0625 C 7.691406 -11.082031 7.414062 -11.03125 7.125 -10.90625 C 6.84375 -10.78125 6.613281 -10.632812 6.4375 -10.46875 C 6.164062 -10.21875 5.992188 -9.875 5.921875 -9.4375 C 5.847656 -9.007812 5.820312 -8.554688 5.84375 -8.078125 C 5.875 -7.597656 5.878906 -7.15625 5.859375 -6.75 Z M 5.859375 -6.4375 "/></g></g></g><g fill="#0b2d4d" fill-opacity="1"><g transform="translate(97.413416, 35.666583)"><g><path d="M 1.640625 8.625 C 1.390625 8.03125 1.238281 7.390625 1.1875 6.703125 C 1.144531 6.023438 1.082031 5.378906 1 4.765625 C 0.90625 3.828125 0.816406 2.882812 0.734375 1.9375 C 0.648438 0.988281 0.597656 0.0351562 0.578125 -0.921875 C 0.515625 -2.679688 0.507812 -4.472656 0.5625 -6.296875 C 0.625 -8.117188 0.800781 -9.910156 1.09375 -11.671875 C 1.164062 -12.054688 1.265625 -12.515625 1.390625 -13.046875 C 1.515625 -13.585938 1.695312 -14.097656 1.9375 -14.578125 C 2.175781 -15.054688 2.488281 -15.378906 2.875 -15.546875 C 3.257812 -15.722656 3.628906 -15.742188 3.984375 -15.609375 C 4.335938 -15.472656 4.648438 -15.253906 4.921875 -14.953125 C 5.203125 -14.660156 5.390625 -14.34375 5.484375 -14 C 6.578125 -14.382812 7.679688 -14.53125 8.796875 -14.4375 C 9.910156 -14.351562 10.910156 -14.035156 11.796875 -13.484375 C 12.691406 -12.941406 13.320312 -12.195312 13.6875 -11.25 C 14.050781 -10.300781 14.03125 -9.164062 13.625 -7.84375 C 13.125 -6.3125 12.257812 -4.988281 11.03125 -3.875 C 9.8125 -2.769531 8.460938 -1.945312 6.984375 -1.40625 C 6.617188 -1.269531 6.359375 -1.179688 6.203125 -1.140625 C 6.054688 -1.109375 5.960938 -1.039062 5.921875 -0.9375 C 5.878906 -0.832031 5.8125 -0.585938 5.71875 -0.203125 C 5.625 0.273438 5.59375 0.78125 5.625 1.3125 C 5.664062 1.851562 5.675781 2.363281 5.65625 2.84375 C 5.625 3.644531 5.59375 4.445312 5.5625 5.25 C 5.53125 6.0625 5.421875 6.867188 5.234375 7.671875 C 5.117188 8.191406 4.925781 8.65625 4.65625 9.0625 C 4.382812 9.476562 4.066406 9.769531 3.703125 9.9375 C 3.335938 10.113281 2.96875 10.109375 2.59375 9.921875 C 2.226562 9.742188 1.910156 9.3125 1.640625 8.625 Z M 5.859375 -6.4375 C 5.992188 -6.570312 6.222656 -6.8125 6.546875 -7.15625 C 6.878906 -7.5 7.21875 -7.882812 7.5625 -8.3125 C 7.90625 -8.75 8.171875 -9.171875 8.359375 -9.578125 C 8.554688 -9.992188 8.597656 -10.335938 8.484375 -10.609375 C 8.398438 -10.890625 8.222656 -11.039062 7.953125 -11.0625 C 7.691406 -11.082031 7.414062 -11.03125 7.125 -10.90625 C 6.84375 -10.78125 6.613281 -10.632812 6.4375 -10.46875 C 6.164062 -10.21875 5.992188 -9.875 5.921875 -9.4375 C 5.847656 -9.007812 5.820312 -8.554688 5.84375 -8.078125 C 5.875 -7.597656 5.878906 -7.15625 5.859375 -6.75 Z M 5.859375 -6.4375 "/></g></g></g><g fill="#0b2d4d" fill-opacity="1"><g transform="translate(111.857739, 35.666583)"><g><path d="M 12.765625 14.34375 C 12.148438 14.707031 11.609375 14.722656 11.140625 14.390625 C 10.671875 14.066406 10.269531 13.503906 9.9375 12.703125 C 9.613281 11.898438 9.347656 10.957031 9.140625 9.875 C 8.929688 8.789062 8.773438 7.65625 8.671875 6.46875 C 8.578125 5.28125 8.515625 4.144531 8.484375 3.0625 C 8.460938 1.976562 8.476562 1.023438 8.53125 0.203125 C 8.59375 -0.617188 8.671875 -1.1875 8.765625 -1.5 C 8.015625 -0.769531 7.191406 -0.351562 6.296875 -0.25 C 5.410156 -0.15625 4.566406 -0.328125 3.765625 -0.765625 C 2.960938 -1.210938 2.320312 -1.867188 1.84375 -2.734375 C 1.1875 -3.941406 0.773438 -5.304688 0.609375 -6.828125 C 0.453125 -8.347656 0.476562 -9.769531 0.6875 -11.09375 C 0.75 -11.457031 0.863281 -11.941406 1.03125 -12.546875 C 1.207031 -13.148438 1.441406 -13.769531 1.734375 -14.40625 C 2.035156 -15.050781 2.382812 -15.609375 2.78125 -16.078125 C 3.1875 -16.546875 3.640625 -16.84375 4.140625 -16.96875 C 4.640625 -17.09375 5.1875 -16.9375 5.78125 -16.5 C 6.257812 -16.15625 6.488281 -15.71875 6.46875 -15.1875 C 6.445312 -14.664062 6.332031 -14.128906 6.125 -13.578125 C 5.914062 -13.035156 5.757812 -12.550781 5.65625 -12.125 C 5.488281 -11.414062 5.347656 -10.640625 5.234375 -9.796875 C 5.117188 -8.953125 5.144531 -8.160156 5.3125 -7.421875 C 5.46875 -6.691406 5.691406 -6.3125 5.984375 -6.28125 C 6.285156 -6.25 6.613281 -6.4375 6.96875 -6.84375 C 7.320312 -7.257812 7.675781 -7.753906 8.03125 -8.328125 C 8.382812 -8.910156 8.695312 -9.453125 8.96875 -9.953125 C 9.238281 -10.460938 9.429688 -10.796875 9.546875 -10.953125 C 9.867188 -11.367188 10.234375 -11.75 10.640625 -12.09375 C 11.054688 -12.445312 11.550781 -12.46875 12.125 -12.15625 C 12.570312 -11.90625 12.859375 -11.484375 12.984375 -10.890625 C 13.117188 -10.296875 13.1875 -9.675781 13.1875 -9.03125 C 13.1875 -8.394531 13.195312 -7.859375 13.21875 -7.421875 C 13.351562 -5.484375 13.445312 -3.546875 13.5 -1.609375 C 13.5625 0.328125 13.59375 2.265625 13.59375 4.203125 C 13.613281 5.078125 13.601562 5.953125 13.5625 6.828125 C 13.53125 7.703125 13.539062 8.578125 13.59375 9.453125 C 13.632812 10.273438 13.640625 11.117188 13.609375 11.984375 C 13.578125 12.847656 13.296875 13.632812 12.765625 14.34375 Z M 12.765625 14.34375 "/></g></g></g><g fill="#0b2d4d" fill-opacity="1"><g transform="translate(126.028235, 35.666583)"><g/></g></g><g fill="#0b2d4d" fill-opacity="1"><g transform="translate(134.585302, 35.666583)"><g><path d="M 4.28125 -0.03125 C 3.414062 0.0820312 2.722656 -0.0546875 2.203125 -0.453125 C 1.691406 -0.859375 1.3125 -1.394531 1.0625 -2.0625 C 0.8125 -2.738281 0.648438 -3.445312 0.578125 -4.1875 C 0.515625 -4.9375 0.492188 -5.609375 0.515625 -6.203125 C 0.628906 -8.273438 0.6875 -10.335938 0.6875 -12.390625 C 0.6875 -14.441406 0.734375 -16.5 0.828125 -18.5625 C 0.867188 -19.351562 0.90625 -20.15625 0.9375 -20.96875 C 0.976562 -21.78125 1.09375 -22.519531 1.28125 -23.1875 C 1.476562 -23.863281 1.828125 -24.414062 2.328125 -24.84375 C 2.828125 -25.28125 3.566406 -25.507812 4.546875 -25.53125 C 5.648438 -25.582031 6.828125 -25.523438 8.078125 -25.359375 C 9.335938 -25.203125 10.53125 -24.898438 11.65625 -24.453125 C 12.78125 -24.015625 13.738281 -23.375 14.53125 -22.53125 C 15.320312 -21.6875 15.796875 -20.585938 15.953125 -19.234375 C 16.066406 -18.273438 15.9375 -17.390625 15.5625 -16.578125 C 15.1875 -15.773438 14.660156 -15.054688 13.984375 -14.421875 C 13.304688 -13.796875 12.582031 -13.242188 11.8125 -12.765625 C 11.257812 -12.421875 10.59375 -12.132812 9.8125 -11.90625 C 9.039062 -11.6875 8.414062 -11.367188 7.9375 -10.953125 C 7.507812 -10.566406 7.210938 -10.066406 7.046875 -9.453125 C 6.890625 -8.835938 6.804688 -8.203125 6.796875 -7.546875 C 6.785156 -6.898438 6.78125 -6.3125 6.78125 -5.78125 C 6.78125 -5.28125 6.773438 -4.71875 6.765625 -4.09375 C 6.753906 -3.46875 6.675781 -2.863281 6.53125 -2.28125 C 6.394531 -1.695312 6.148438 -1.195312 5.796875 -0.78125 C 5.441406 -0.375 4.9375 -0.125 4.28125 -0.03125 Z M 8.796875 -15.09375 C 9.984375 -15.457031 10.597656 -16.289062 10.640625 -17.59375 C 10.691406 -18.1875 10.5625 -18.789062 10.25 -19.40625 C 9.945312 -20.019531 9.519531 -20.476562 8.96875 -20.78125 C 8.394531 -21.070312 7.984375 -21.113281 7.734375 -20.90625 C 7.484375 -20.707031 7.328125 -20.367188 7.265625 -19.890625 C 7.210938 -19.410156 7.203125 -18.898438 7.234375 -18.359375 C 7.273438 -17.828125 7.296875 -17.367188 7.296875 -16.984375 C 7.265625 -16.503906 7.242188 -16.085938 7.234375 -15.734375 C 7.222656 -15.378906 7.328125 -15.140625 7.546875 -15.015625 C 7.765625 -14.890625 8.179688 -14.914062 8.796875 -15.09375 Z M 8.796875 -15.09375 "/></g></g></g><g fill="#0b2d4d" fill-opacity="1"><g transform="translate(150.569897, 35.666583)"><g><path d="M 10.921875 -0.03125 C 10.535156 -0.125 10.238281 -0.347656 10.03125 -0.703125 C 9.820312 -1.054688 9.675781 -1.46875 9.59375 -1.9375 C 9.519531 -2.40625 9.472656 -2.859375 9.453125 -3.296875 C 9.429688 -3.742188 9.421875 -4.101562 9.421875 -4.375 C 8.941406 -3.71875 8.328125 -3.15625 7.578125 -2.6875 C 6.835938 -2.21875 6.0625 -1.921875 5.25 -1.796875 C 4.445312 -1.671875 3.691406 -1.765625 2.984375 -2.078125 C 2.273438 -2.398438 1.691406 -3.007812 1.234375 -3.90625 C 0.796875 -4.8125 0.5625 -5.789062 0.53125 -6.84375 C 0.5 -7.894531 0.628906 -8.9375 0.921875 -9.96875 C 1.222656 -11.007812 1.625 -11.929688 2.125 -12.734375 C 2.601562 -13.460938 3.179688 -14.113281 3.859375 -14.6875 C 4.546875 -15.257812 5.289062 -15.664062 6.09375 -15.90625 C 6.894531 -16.144531 7.671875 -16.144531 8.421875 -15.90625 C 9.171875 -15.664062 9.851562 -15.109375 10.46875 -14.234375 C 10.84375 -13.734375 11.148438 -13.289062 11.390625 -12.90625 C 11.628906 -12.519531 11.8125 -12.109375 11.9375 -11.671875 C 12.0625 -11.242188 12.132812 -10.695312 12.15625 -10.03125 L 12.359375 -3.59375 C 12.359375 -3.34375 12.367188 -3 12.390625 -2.5625 C 12.410156 -2.132812 12.390625 -1.707031 12.328125 -1.28125 C 12.273438 -0.863281 12.140625 -0.523438 11.921875 -0.265625 C 11.710938 -0.015625 11.378906 0.0625 10.921875 -0.03125 Z M 6.578125 -7.765625 C 6.847656 -7.765625 7.128906 -7.921875 7.421875 -8.234375 C 7.722656 -8.546875 7.992188 -8.890625 8.234375 -9.265625 C 8.472656 -9.640625 8.628906 -9.929688 8.703125 -10.140625 C 8.921875 -10.640625 8.945312 -11.082031 8.78125 -11.46875 C 8.613281 -11.851562 8.253906 -11.929688 7.703125 -11.703125 C 7.335938 -11.566406 6.984375 -11.25 6.640625 -10.75 C 6.296875 -10.25 6.054688 -9.816406 5.921875 -9.453125 C 5.804688 -9.085938 5.757812 -8.722656 5.78125 -8.359375 C 5.800781 -7.992188 6.066406 -7.796875 6.578125 -7.765625 Z M 6.578125 -7.765625 "/></g></g></g><g fill="#0b2d4d" fill-opacity="1"><g transform="translate(163.50818, 35.666583)"><g><path d="M 10 -0.0625 C 9.5 0.113281 9.078125 0.0195312 8.734375 -0.34375 C 8.390625 -0.707031 8.160156 -1.09375 8.046875 -1.5 C 7.203125 -0.863281 6.382812 -0.519531 5.59375 -0.46875 C 4.8125 -0.425781 4.085938 -0.59375 3.421875 -0.96875 C 2.765625 -1.351562 2.203125 -1.882812 1.734375 -2.5625 C 1.265625 -3.25 0.921875 -4.003906 0.703125 -4.828125 C 0.484375 -5.648438 0.441406 -6.472656 0.578125 -7.296875 C 0.765625 -8.367188 1.140625 -9.398438 1.703125 -10.390625 C 2.273438 -11.378906 2.953125 -12.253906 3.734375 -13.015625 C 4.046875 -13.328125 4.40625 -13.578125 4.8125 -13.765625 C 5.226562 -13.960938 5.617188 -14.175781 5.984375 -14.40625 C 6.347656 -14.632812 6.601562 -14.929688 6.75 -15.296875 C 6.925781 -15.773438 7.003906 -16.335938 6.984375 -16.984375 C 6.960938 -17.640625 6.929688 -18.304688 6.890625 -18.984375 C 6.859375 -19.660156 6.898438 -20.289062 7.015625 -20.875 C 7.128906 -21.46875 7.40625 -21.960938 7.84375 -22.359375 C 8.4375 -22.878906 8.9375 -23.082031 9.34375 -22.96875 C 9.757812 -22.851562 10.101562 -22.554688 10.375 -22.078125 C 10.644531 -21.597656 10.84375 -21.070312 10.96875 -20.5 C 11.09375 -19.9375 11.15625 -19.457031 11.15625 -19.0625 C 11.175781 -17.757812 11.1875 -16.457031 11.1875 -15.15625 C 11.1875 -13.863281 11.203125 -12.566406 11.234375 -11.265625 C 11.253906 -9.867188 11.269531 -8.460938 11.28125 -7.046875 C 11.289062 -5.640625 11.207031 -4.226562 11.03125 -2.8125 C 11 -2.53125 10.96875 -2.203125 10.9375 -1.828125 C 10.90625 -1.453125 10.828125 -1.097656 10.703125 -0.765625 C 10.578125 -0.441406 10.34375 -0.207031 10 -0.0625 Z M 5.0625 -6.296875 C 5.3125 -5.953125 5.566406 -5.820312 5.828125 -5.90625 C 6.097656 -5.988281 6.332031 -6.171875 6.53125 -6.453125 C 6.738281 -6.734375 6.851562 -6.976562 6.875 -7.1875 C 6.988281 -7.800781 6.96875 -8.484375 6.8125 -9.234375 C 6.65625 -9.992188 6.5625 -10.691406 6.53125 -11.328125 C 6.125 -11.015625 5.742188 -10.5625 5.390625 -9.96875 C 5.035156 -9.375 4.804688 -8.742188 4.703125 -8.078125 C 4.597656 -7.421875 4.71875 -6.828125 5.0625 -6.296875 Z M 5.0625 -6.296875 "/></g></g></g><g fill="#0b2d4d" fill-opacity="1"><g transform="translate(175.282709, 35.666583)"><g><path d="M 10 -0.0625 C 9.5 0.113281 9.078125 0.0195312 8.734375 -0.34375 C 8.390625 -0.707031 8.160156 -1.09375 8.046875 -1.5 C 7.203125 -0.863281 6.382812 -0.519531 5.59375 -0.46875 C 4.8125 -0.425781 4.085938 -0.59375 3.421875 -0.96875 C 2.765625 -1.351562 2.203125 -1.882812 1.734375 -2.5625 C 1.265625 -3.25 0.921875 -4.003906 0.703125 -4.828125 C 0.484375 -5.648438 0.441406 -6.472656 0.578125 -7.296875 C 0.765625 -8.367188 1.140625 -9.398438 1.703125 -10.390625 C 2.273438 -11.378906 2.953125 -12.253906 3.734375 -13.015625 C 4.046875 -13.328125 4.40625 -13.578125 4.8125 -13.765625 C 5.226562 -13.960938 5.617188 -14.175781 5.984375 -14.40625 C 6.347656 -14.632812 6.601562 -14.929688 6.75 -15.296875 C 6.925781 -15.773438 7.003906 -16.335938 6.984375 -16.984375 C 6.960938 -17.640625 6.929688 -18.304688 6.890625 -18.984375 C 6.859375 -19.660156 6.898438 -20.289062 7.015625 -20.875 C 7.128906 -21.46875 7.40625 -21.960938 7.84375 -22.359375 C 8.4375 -22.878906 8.9375 -23.082031 9.34375 -22.96875 C 9.757812 -22.851562 10.101562 -22.554688 10.375 -22.078125 C 10.644531 -21.597656 10.84375 -21.070312 10.96875 -20.5 C 11.09375 -19.9375 11.15625 -19.457031 11.15625 -19.0625 C 11.175781 -17.757812 11.1875 -16.457031 11.1875 -15.15625 C 11.1875 -13.863281 11.203125 -12.566406 11.234375 -11.265625 C 11.253906 -9.867188 11.269531 -8.460938 11.28125 -7.046875 C 11.289062 -5.640625 11.207031 -4.226562 11.03125 -2.8125 C 11 -2.53125 10.96875 -2.203125 10.9375 -1.828125 C 10.90625 -1.453125 10.828125 -1.097656 10.703125 -0.765625 C 10.578125 -0.441406 10.34375 -0.207031 10 -0.0625 Z M 5.0625 -6.296875 C 5.3125 -5.953125 5.566406 -5.820312 5.828125 -5.90625 C 6.097656 -5.988281 6.332031 -6.171875 6.53125 -6.453125 C 6.738281 -6.734375 6.851562 -6.976562 6.875 -7.1875 C 6.988281 -7.800781 6.96875 -8.484375 6.8125 -9.234375 C 6.65625 -9.992188 6.5625 -10.691406 6.53125 -11.328125 C 6.125 -11.015625 5.742188 -10.5625 5.390625 -9.96875 C 5.035156 -9.375 4.804688 -8.742188 4.703125 -8.078125 C 4.597656 -7.421875 4.71875 -6.828125 5.0625 -6.296875 Z M 5.0625 -6.296875 "/></g></g></g><g fill="#0b2d4d" fill-opacity="1"><g transform="translate(187.057221, 35.666583)"><g><path d="M 2.53125 4.796875 C 2.070312 4.296875 1.707031 3.546875 1.4375 2.546875 C 1.164062 1.554688 0.957031 0.429688 0.8125 -0.828125 C 0.675781 -2.097656 0.597656 -3.410156 0.578125 -4.765625 C 0.554688 -6.128906 0.566406 -7.4375 0.609375 -8.6875 C 0.660156 -9.945312 0.71875 -11.054688 0.78125 -12.015625 C 0.8125 -12.378906 0.847656 -12.914062 0.890625 -13.625 C 0.929688 -14.332031 1 -15.113281 1.09375 -15.96875 C 1.1875 -16.820312 1.332031 -17.664062 1.53125 -18.5 C 1.738281 -19.332031 2.015625 -20.066406 2.359375 -20.703125 C 2.703125 -21.347656 3.144531 -21.804688 3.6875 -22.078125 C 4.238281 -22.347656 4.90625 -22.347656 5.6875 -22.078125 C 6.144531 -21.898438 6.453125 -21.539062 6.609375 -21 C 6.765625 -20.46875 6.828125 -19.832031 6.796875 -19.09375 C 6.765625 -18.363281 6.671875 -17.625 6.515625 -16.875 C 6.367188 -16.125 6.210938 -15.425781 6.046875 -14.78125 C 5.890625 -14.144531 5.78125 -13.65625 5.71875 -13.3125 C 5.375 -11.625 5.203125 -9.851562 5.203125 -8 C 5.203125 -6.15625 5.273438 -4.347656 5.421875 -2.578125 C 5.578125 -0.816406 5.675781 0.816406 5.71875 2.328125 C 5.738281 2.691406 5.660156 3.113281 5.484375 3.59375 C 5.316406 4.070312 5.082031 4.492188 4.78125 4.859375 C 4.488281 5.222656 4.148438 5.425781 3.765625 5.46875 C 3.378906 5.519531 2.96875 5.296875 2.53125 4.796875 Z M 2.53125 4.796875 "/></g></g></g><g fill="#0b2d4d" fill-opacity="1"><g transform="translate(195.032394, 35.666583)"><g><path d="M 4.59375 -1.546875 C 3.519531 -1.722656 2.664062 -2.140625 2.03125 -2.796875 C 1.40625 -3.460938 0.976562 -4.265625 0.75 -5.203125 C 0.519531 -6.140625 0.457031 -7.117188 0.5625 -8.140625 C 0.664062 -9.171875 0.910156 -10.148438 1.296875 -11.078125 C 1.691406 -12.003906 2.179688 -12.785156 2.765625 -13.421875 C 3.523438 -14.222656 4.476562 -14.816406 5.625 -15.203125 C 6.78125 -15.585938 7.90625 -15.617188 9 -15.296875 C 9.570312 -15.140625 10.097656 -14.847656 10.578125 -14.421875 C 11.054688 -14.003906 11.429688 -13.519531 11.703125 -12.96875 C 11.984375 -12.425781 12.097656 -11.863281 12.046875 -11.28125 C 12.003906 -10.695312 11.753906 -10.144531 11.296875 -9.625 C 10.859375 -9.144531 10.320312 -8.789062 9.6875 -8.5625 C 9.050781 -8.332031 8.425781 -8.160156 7.8125 -8.046875 C 7.394531 -7.972656 6.96875 -7.925781 6.53125 -7.90625 C 6.101562 -7.882812 5.734375 -7.773438 5.421875 -7.578125 C 5.117188 -7.390625 4.941406 -7 4.890625 -6.40625 C 4.847656 -5.789062 4.945312 -5.410156 5.1875 -5.265625 C 5.425781 -5.128906 5.734375 -5.144531 6.109375 -5.3125 C 6.484375 -5.488281 6.875 -5.722656 7.28125 -6.015625 C 7.695312 -6.316406 8.078125 -6.601562 8.421875 -6.875 C 8.765625 -7.15625 9.003906 -7.328125 9.140625 -7.390625 C 9.867188 -7.710938 10.390625 -7.734375 10.703125 -7.453125 C 11.023438 -7.179688 11.195312 -6.765625 11.21875 -6.203125 C 11.25 -5.648438 11.164062 -5.085938 10.96875 -4.515625 C 10.78125 -3.941406 10.535156 -3.507812 10.234375 -3.21875 C 9.523438 -2.507812 8.648438 -2.007812 7.609375 -1.71875 C 6.578125 -1.4375 5.570312 -1.378906 4.59375 -1.546875 Z M 6.84375 -10.203125 C 7.070312 -10.128906 7.367188 -10.132812 7.734375 -10.21875 C 8.097656 -10.300781 8.40625 -10.4375 8.65625 -10.625 C 8.90625 -10.820312 8.972656 -11.035156 8.859375 -11.265625 C 8.429688 -11.328125 8.035156 -11.265625 7.671875 -11.078125 C 7.304688 -10.898438 7.03125 -10.609375 6.84375 -10.203125 Z M 6.84375 -10.203125 "/></g></g></g></g></g></svg>